<?xml version="1.0" standalone="no"?>
<!DOCTYPE svg PUBLIC "-//W3C//DTD SVG 20010904//EN"
 "http://www.w3.org/TR/2001/REC-SVG-20010904/DTD/svg10.dtd">
<svg version="1.0" xmlns="http://www.w3.org/2000/svg"
 width="700.000000pt" height="700.000000pt" viewBox="0 0 700.000000 700.000000"
 preserveAspectRatio="xMidYMid meet">
<metadata>
Created by potrace 1.14, written by Peter Selinger 2001-2017
</metadata>
<g transform="translate(0.000000,700.000000) scale(0.100000,-0.100000)"
fill="#000000" stroke="none">
<path d="M2840 5464 c-696 -122 -1295 -228 -1333 -234 l-67 -12 2 -1706 3
-1706 1325 -232 c729 -128 1342 -236 1363 -239 l37 -7 0 2181 0 2181 -32 -1
c-18 -1 -602 -102 -1298 -225z m68 -1206 c11 -29 146 -385 301 -792 155 -406
281 -740 281 -742 0 -2 -71 -4 -157 -4 l-158 0 -74 200 -74 200 -276 -2 -275
-3 -49 -130 c-26 -71 -59 -160 -73 -197 l-26 -68 -154 0 c-94 0 -154 4 -154
10 0 7 375 995 591 1558 8 21 13 22 143 22 l135 0 19 -52z"/>
<path d="M2743 3924 c-6 -16 -56 -153 -112 -305 -55 -152 -101 -279 -101 -282
0 -4 99 -7 220 -7 121 0 220 2 220 4 0 4 -186 536 -208 595 l-9 25 -10 -30z"/>
<path d="M4387 4694 c-4 -4 -7 -168 -7 -365 l0 -358 38 -6 c86 -14 100 -18
160 -47 116 -55 211 -175 242 -307 46 -197 -61 -416 -247 -503 -35 -17 -92
-35 -128 -41 l-65 -11 0 -363 0 -364 138 3 137 3 3 158 c2 106 6 157 14 157 6
0 37 12 70 27 l59 26 110 -109 109 -109 195 195 195 195 -109 110 -109 110 30
73 30 72 154 0 154 0 0 275 0 275 -155 0 c-139 0 -156 2 -162 18 -3 9 -16 42
-30 71 l-24 55 111 111 110 110 -195 195 -195 195 -109 -109 -109 -109 -71 28
-71 28 -2 156 -3 156 -131 3 c-71 1 -133 -1 -137 -4z"/>
<path d="M4387 3764 c-4 -4 -7 -119 -7 -256 l0 -248 28 0 c38 0 122 42 154 76
113 121 79 335 -65 402 -50 24 -100 35 -110 26z"/>
</g>
</svg>
